<?xml version="1.0" encoding="UTF-8"?>
<svg id="Layer_2" data-name="Layer 2" xmlns="http://www.w3.org/2000/svg" viewBox="0 0 326 61">
  <defs>
    <style>
      .cls-1 {
        fill: #231f20;
      }
    </style>
  </defs>
  <g id="Layer_1-2" data-name="Layer 1">
    <path class="cls-1" d="M90.12,12.61c-4.72.59-9.19,2.97-14.16,7.54-1.21,1.11-2.04,1.93-4.01,3.97-1.41,1.46-1.61,1.64-1.72,1.59-.07-.04-.61-.59-1.22-1.24-6.99-7.46-11.52-10.6-16.77-11.6-3.42-.66-6.97-.24-10.2,1.18-5.41,2.39-9.37,7.43-10.47,13.33-.25,1.32-.31,2.02-.31,3.6,0,2.5.33,4.58,1.08,6.78,2.07,6.14,7,10.36,13.22,11.33,3.87.6,8.17-.17,11.96-2.13,1.48-.77,2.74-1.59,4.3-2.81,1.96-1.52,3.4-2.87,6.48-6.05,1.08-1.11,2-2.02,2.04-2.02.05,0,.47.42.94.93,1.05,1.14,3.62,3.72,4.7,4.73,5.01,4.65,8.81,6.72,13.6,7.41.35.05,1.19.08,2.14.08,1.3,0,1.7-.03,2.44-.15,3.97-.64,7.36-2.41,10.14-5.3,2.79-2.91,4.53-6.65,5.03-10.82.12-.99.1-3.58-.04-4.58-.48-3.57-1.68-6.79-3.47-9.28-.58-.82-1.8-2.11-2.6-2.77-2.22-1.85-5.11-3.09-8.42-3.63-1.05-.17-3.63-.22-4.69-.08ZM51.56,22.22c1.67.37,3.37,1.21,5.03,2.5.59.46,1.48,1.21,2.06,1.76.73.69,4.38,4.41,4.38,4.46,0,.08-3.19,3.37-3.96,4.09-2.45,2.27-4.71,3.71-6.84,4.35-1.01.3-1.6.38-2.81.38-.95,0-1.17-.02-1.66-.12-2.94-.62-5.09-2.61-6.02-5.59-.8-2.54-.65-4.94.45-7.19,1.25-2.57,3.51-4.28,6.3-4.75.31-.05.73-.07,1.46-.05.86.02,1.12.04,1.63.15ZM92.46,22.13c1.62.24,3.01.89,4.18,1.96,2.18,1.99,3.22,5.5,2.57,8.68-.67,3.24-3.05,5.86-6.1,6.7-.74.2-1.39.28-2.26.28-1.54,0-2.78-.32-4.32-1.11-1.62-.83-3.19-2.02-5.15-3.94-1.23-1.2-3.69-3.72-3.71-3.8-.01-.08,2.31-2.56,3.32-3.53,3.39-3.26,6.07-4.83,8.94-5.25.65-.09,1.9-.09,2.53,0Z"/>
    <path class="cls-1" d="M0,1h11v38h18v10H0V1Z"/>
    <path class="cls-1" d="M113,13h11v4h.2c.54-1.28,4.16-4.63,10.34-4.63,7.93,0,16.66,5.98,16.66,18.13s-8.73,18.13-16.66,18.13c-6.18,0-9.81-3.36-10.34-4.63h-.2v17h-11V13ZM132.48,39.89c4.49,0,8.64-3.27,8.64-8.99s-4.15-8.99-8.64-8.99-8.78,3.2-8.78,8.99,4.15,8.99,8.78,8.99Z"/>
    <path class="cls-1" d="M156,0h11v48h-11V0Z"/>
    <path class="cls-1" d="M171.48,30.98c0-11.98,8.92-18.45,18.04-18.45s19.54,6.26,17.29,22.46h-25.19c1.43,3.81,4.97,5.72,9.67,5.72,3.13,0,5.92-.75,8.51-2.72l4.76,4.97c-2.93,3.68-7.96,6.33-14.43,6.33-9.8,0-18.65-6.67-18.65-18.31ZM197.55,27c-.75-4.08-4.36-6.06-7.9-6.06s-7.08,1.84-8.24,6.06h16.13Z"/>
    <path class="cls-1" d="M214,37.44v-16.44h-5v-8h5V4h11v9h7v8h-7v14.43c0,1.77,1.08,3.68,4.47,3.68.87,0,2.16-.14,3.53-.54v8.8c-1.43,1.43-4.57,1.93-7.14,1.93-6.86,0-11.86-3.36-11.86-11.86Z"/>
    <path class="cls-1" d="M241,37.75v-16.75h-5v-8h5V4h11v9h7v8h-8v14.43c0,1.77,1.08,3.68,4.47,3.68.87,0,2.16-.14,3.53-.54v8.59c-1.35,1.35-4.33,1.83-6.77,1.83-6.5,0-11.23-3.18-11.23-11.23Z"/>
    <path class="cls-1" d="M261.87,30.98c0-11.98,8.92-18.45,18.04-18.45s19.54,6.26,17.29,22.46h-25.19c1.43,3.81,4.97,5.72,9.67,5.72,3.13,0,5.92-.75,8.51-2.72l4.76,4.97c-2.93,3.68-7.96,6.33-14.43,6.33-9.8,0-18.65-6.67-18.65-18.31ZM287.94,27c-.75-4.08-4.36-6.06-7.9-6.06s-7.08,1.84-8.24,6.06h16.13Z"/>
    <path class="cls-1" d="M302,13h11v9.6c1.12-5.72,4.4-10.28,10.57-10.28.79,0,1.58.07,2.43.34v10.01c-.79-.14-1.51-.2-2.36-.2-6.76,0-10.64,4.7-10.64,11.37v14.17h-11V13Z"/>
  </g>
</svg>