<?xml version="1.0" encoding="UTF-8"?>
<svg id="Layer_2" data-name="Layer 2" xmlns="http://www.w3.org/2000/svg" viewBox="0 0 56.06 10.79">
  <defs>
    <style>
      .cls-1 {
        fill: #231f20;
      }
    </style>
  </defs>
  <g id="Layer_1-2" data-name="Layer 1">
    <g>
      <path class="cls-1" d="M0,0h1.35v7.26h3.51v1.26H0V0Z"/>
      <path class="cls-1" d="M20.14,2.28h1.32v1h.04c.23-.49,1.02-1.12,2.16-1.12,1.48,0,3.02,1.09,3.02,3.24s-1.55,3.24-3.02,3.24c-1.14,0-1.93-.62-2.16-1.12h-.04v3.27h-1.32V2.28ZM23.4,7.44c1,0,1.97-.7,1.97-2.04s-.97-2.04-1.97-2.04-1.98.7-1.98,2.04.97,2.04,1.98,2.04Z"/>
      <path class="cls-1" d="M27.7,0h1.32v8.52h-1.32V0Z"/>
      <path class="cls-1" d="M30.04,5.4c0-2.1,1.55-3.24,3.13-3.24s3.31,1.13,3.01,3.74h-4.89c.2,1.08,1.06,1.63,2.12,1.63.67,0,1.27-.22,1.73-.65l.62.65c-.54.67-1.44,1.1-2.49,1.1-1.69,0-3.23-1.16-3.23-3.24ZM35,4.92c-.07-1.08-.94-1.63-1.82-1.63s-1.71.53-1.91,1.63h3.73Z"/>
      <path class="cls-1" d="M37.62,7v-3.66h-.86v-1.07h.86V.68h1.33v1.6h1.26v1.07h-1.26v3.42c0,.36.19.64.68.64.14,0,.35-.02.58-.11v1.04c-.23.19-.64.25-.97.25-.95,0-1.62-.47-1.62-1.58Z"/>
      <path class="cls-1" d="M41.85,7v-3.66h-.86v-1.07h.86V.68h1.33v1.6h1.26v1.07h-1.26v3.42c0,.36.19.64.68.64.14,0,.35-.02.58-.11v1.04c-.23.19-.64.25-.97.25-.95,0-1.62-.47-1.62-1.58Z"/>
      <path class="cls-1" d="M45.17,5.4c0-2.1,1.55-3.24,3.13-3.24s3.31,1.13,3.01,3.74h-4.89c.2,1.08,1.06,1.63,2.12,1.63.67,0,1.27-.22,1.73-.65l.62.65c-.54.67-1.44,1.1-2.49,1.1-1.69,0-3.23-1.16-3.23-3.24ZM50.13,4.92c-.07-1.08-.94-1.63-1.82-1.63s-1.71.53-1.91,1.63h3.73Z"/>
      <path class="cls-1" d="M52.37,2.28h1.32v1.61c.22-.94.84-1.73,1.98-1.73.14,0,.26.01.4.05v1.26c-.13-.02-.24-.04-.38-.04-1.19,0-1.99.86-1.99,2.17v2.91h-1.32V2.28Z"/>
      <path class="cls-1" d="M15.83,2.17c-.83.1-1.62.52-2.5,1.33-.21.2-.36.34-.71.7-.25.26-.28.29-.3.28-.01,0-.11-.1-.21-.22-1.23-1.31-2.03-1.87-2.96-2.04-.6-.12-1.23-.04-1.8.21-.95.42-1.65,1.31-1.85,2.35-.04.23-.05.36-.05.63,0,.44.06.81.19,1.19.36,1.08,1.23,1.83,2.33,2,.68.11,1.44-.03,2.11-.38.26-.14.48-.28.76-.49.35-.27.6-.5,1.14-1.07.19-.2.35-.36.36-.36,0,0,.08.07.17.16.19.2.64.66.83.83.88.82,1.55,1.18,2.4,1.3.06,0,.21.01.38.01.23,0,.3,0,.43-.03.7-.11,1.3-.43,1.79-.93.49-.51.8-1.17.89-1.91.02-.17.02-.63,0-.81-.08-.63-.3-1.2-.61-1.63-.1-.14-.32-.37-.46-.49-.39-.33-.9-.55-1.48-.64-.19-.03-.64-.04-.83-.01ZM9.02,3.52c.36.08.73.26,1.09.54.13.1.32.26.44.38.16.15.95.95.95.96,0,.02-.69.73-.86.88-.53.49-1.02.8-1.48.94-.22.07-.35.08-.61.08-.2,0-.25,0-.36-.03-.64-.13-1.1-.57-1.3-1.21-.17-.55-.14-1.07.1-1.55.27-.56.76-.92,1.36-1.03.07-.01.16-.01.32-.01.19,0,.24,0,.35.03ZM16.41,3.5c.35.05.65.19.91.42.47.43.7,1.19.56,1.88-.14.7-.66,1.27-1.32,1.45-.16.04-.3.06-.49.06-.33,0-.6-.07-.94-.24-.35-.18-.69-.44-1.12-.85-.27-.26-.8-.81-.8-.82,0-.02.5-.56.72-.76.73-.71,1.31-1.05,1.94-1.14.14-.02.41-.02.55,0Z"/>
    </g>
  </g>
</svg>